<svg width="29" height="26" viewBox="0 0 29 26" fill="none" xmlns="http://www.w3.org/2000/svg">
<path d="M14.5 20.9996C10.8761 20.9996 7.56813 21.5037 5.04867 22.3331M22.6011 14.3323C23.4445 14.332 24.276 14.1367 25.0292 13.762C25.7824 13.3872 26.4362 12.8435 26.9383 12.1743C27.4405 11.5051 27.777 10.7291 27.9208 9.90846C28.0647 9.08777 28.012 8.24522 27.7669 7.44828C27.5217 6.65134 27.0911 5.92216 26.5093 5.31916C25.9276 4.71615 25.2109 4.25608 24.4167 3.97578C23.6226 3.69549 22.773 3.60277 21.936 3.70505C21.0991 3.80733 20.298 4.10176 19.597 4.56476C19.2256 3.52259 18.5358 2.61996 17.6228 1.98144C16.7098 1.34292 15.6187 1 14.5 1C13.3813 1 12.2902 1.34292 11.3772 1.98144C10.4642 2.61996 9.77445 3.52259 9.40303 4.56476C8.702 4.10176 7.90092 3.80733 7.06396 3.70505C6.22699 3.60277 5.37741 3.69549 4.58325 3.97578C3.78909 4.25608 3.07244 4.71615 2.49069 5.31916C1.90893 5.92216 1.47825 6.65134 1.23314 7.44828C0.988029 8.24522 0.935299 9.08777 1.07917 9.90846C1.22305 10.7291 1.55953 11.5051 2.06166 12.1743C2.5638 12.8435 3.21763 13.3872 3.9708 13.762C4.72396 14.1367 5.55552 14.332 6.39886 14.3323V21.6664M26.6517 21.6664H18.5506M26.6517 21.6664C26.6517 22.5998 23.9594 24.3453 23.2762 25M26.6517 21.6664C26.6517 20.7329 23.9594 18.9874 23.2762 18.3327" stroke="#FFFCFF" stroke-width="1.5" stroke-linecap="round" stroke-linejoin="round"/>
</svg>
