<svg width="89" height="89" viewBox="0 0 89 89" fill="none" xmlns="http://www.w3.org/2000/svg">
<path d="M59.3334 81.5832H22.2501V88.9998H59.3334V81.5832ZM59.3334 81.5832H66.7501V74.1665H81.5834V37.0832H66.7501V29.6665H74.1668V14.8332H66.7501V22.2498H37.0834V29.6665H59.3334V81.5832ZM14.8334 81.5832H22.2501V44.4998H14.8334V14.8332H7.41675V51.9165H14.8334V81.5832ZM29.6667 74.1665H37.0834V51.9165H29.6667V74.1665ZM22.2501 44.4998H29.6667V37.0832H37.0834V29.6665H22.2501V44.4998ZM44.5001 74.1665H51.9167V37.0832H44.5001V74.1665ZM66.7501 66.7498V44.4998H74.1668V66.7498H66.7501ZM14.8334 14.8332H66.7501V7.4165H14.8334V14.8332Z" fill="#FFFBBD"/>
</svg>
