<svg width="18" height="22" viewBox="0 0 18 22" fill="none" xmlns="http://www.w3.org/2000/svg">
<path d="M3.98584 2.70173C6.78284 5.79673 11.3958 -0.882266 14.1258 1.54173C15.6958 2.93573 15.1988 6.01573 13.1608 8.02173" stroke="#CA3C25" stroke-width="1.5" stroke-linecap="round"/>
<path d="M10.7898 12.9855C10.8078 12.6505 10.9008 12.0385 10.3928 11.5735C10.1987 11.404 9.97207 11.2757 9.7268 11.1965C8.6788 10.8265 7.3908 12.0635 8.3018 13.1965C8.7918 13.8045 9.1688 13.9915 9.1338 14.6825C9.1088 15.1685 8.6308 15.6765 8.0018 15.8705C7.4548 16.0385 6.8518 15.8155 6.4708 15.3895C6.0048 14.8695 6.0508 14.3785 6.0478 14.1645M10.3928 11.5745L10.9668 10.9995M6.5118 15.4545L5.9668 15.9995" stroke="#CA3C25" stroke-width="1.5" stroke-linecap="round" stroke-linejoin="round"/>
<path d="M15.2729 5.63459C16.1979 5.81259 16.4059 6.39659 16.6819 8.01859C16.9309 9.47859 17.0009 11.2316 17.0009 11.9786C16.9756 12.2528 16.8639 12.5119 16.6819 12.7186C14.7469 14.7466 10.9059 18.5766 8.96789 20.4786C8.20789 21.1586 7.05989 21.1736 6.25189 20.5496C4.59889 19.0626 3.01089 17.3816 1.45489 15.8646C0.829894 15.0586 0.844894 13.9146 1.52489 13.1556C3.57589 11.0286 7.28689 7.38759 9.38089 5.37559C9.59089 5.19559 9.84889 5.08359 10.1239 5.05859C10.5939 5.05859 11.3999 5.12159 12.1859 5.16659" stroke="#CA3C25" stroke-width="1.5" stroke-linecap="round"/>
</svg>
